# xmcd
#
# Track frame offsets: 
#        150
#        18678
#        29201
#        47591
#        59373
#        68843
#        80340
#        105831
#        120574
#        134659
#        150599
#
# Disc length: 2154 seconds
#
# Revision: 0
# Processed by: cddbd v1.5.2PL0 Copyright (c) Steve Scherf et al.
# Submitted via: ExactAudioCopy v1.0b4
#
DISCID=9108680b
DTITLE=Brunning Sunflower Blues Band - Bullen St Blues (LP)
DYEAR=1900
DGENRE=Blues
TTITLE0=Gone Back Home
TTITLE1=Hit That Wine
TTITLE2=Bullen Street Blues
TTITLE3=No Idea
TTITLE4=Shout Your Name And Call It
TTITLE5=Take Yolur Hands Off Me
TTITLE6=Fore Time Began
TTITLE7=Something Tells Me
TTITLE8=Big Belly Blues
TTITLE9=Sunflower Boogie
TTITLE10=Rockin' Chair
EXTD=
EXTT0=
EXTT1=
EXTT2=
EXTT3=
EXTT4=
EXTT5=
EXTT6=
EXTT7=
EXTT8=
EXTT9=
EXTT10=
PLAYORDER=
